<svg width="50" height="50" viewBox="0 0 50 50" fill="none" xmlns="http://www.w3.org/2000/svg">
<rect width="50" height="50" rx="10" fill="white"/>
<g clip-path="url(#clip0_11_17)">
<path d="M24.9984 10.9618C17.2586 10.9618 10.9618 17.2586 10.9618 24.9984C10.9618 32.7398 17.2586 39.0382 24.9984 39.0382C32.7398 39.0382 39.0382 32.7398 39.0382 24.9984C39.0382 17.2586 32.7401 10.9618 24.9984 10.9618ZM24.9984 36.1804C18.8343 36.1804 13.8199 31.1644 13.8199 24.9984C13.8199 18.8346 18.8346 13.8202 24.9984 13.8202C31.1638 13.8202 36.1801 18.835 36.1801 24.9984C36.1801 31.1641 31.1641 36.1804 24.9984 36.1804Z" fill="#FFE101"/>
<path d="M24.9984 10C16.7283 10 10 16.7283 10 24.9984C10 33.2704 16.7283 40 24.9984 40C33.2704 40 40 33.2704 40 24.9984C40 16.7283 33.2704 10 24.9984 10ZM24.9984 39.0382C17.2586 39.0382 10.9618 32.7398 10.9618 24.9984C10.9618 17.2586 17.2586 10.9618 24.9984 10.9618C32.7398 10.9618 39.0382 17.2586 39.0382 24.9981C39.0382 32.7398 32.7401 39.0382 24.9984 39.0382Z" fill="black"/>
<path d="M26.5167 27.2874C26.5167 27.1541 26.4856 27.1041 26.4388 27.0605C26.4289 27.0512 26.4081 27.0342 26.3705 27.0114V27.5183C26.5167 27.433 26.5167 27.3362 26.5167 27.2874Z" fill="white"/>
<path d="M23.7003 22.1868V22.2201C23.7003 22.3323 23.7353 22.3737 23.7683 22.4041C23.7763 22.4112 23.8029 22.433 23.8638 22.4647V21.9505C23.825 21.9694 23.8035 21.9851 23.793 21.9944C23.7167 22.0617 23.7003 22.1201 23.7003 22.1868Z" fill="white"/>
<path d="M24.9984 14.782C19.3649 14.782 14.7817 19.3652 14.7817 24.9984C14.7817 30.6338 19.3649 35.2186 24.9984 35.2186C30.6335 35.2186 35.2183 30.6338 35.2183 24.9984C35.2183 19.3649 30.6335 14.782 24.9984 14.782ZM30.2077 27.0742C30.2077 27.6459 30.1674 28.1732 29.9526 28.641C29.7336 29.1071 29.4598 29.5143 29.069 29.8551C28.6827 30.1901 28.1983 30.4591 27.6657 30.655C27.2663 30.8012 27.0018 30.9092 26.3606 30.9775V32.5436H23.7958V30.9416C23.1547 30.8364 22.3727 30.6627 21.7113 30.4241C20.9073 30.1353 20.1526 29.7467 19.4896 29.2697L19.1049 28.9965L21.1323 25.9983L21.5321 26.284C22.0249 26.6347 22.4894 26.9194 22.9678 27.1307C23.2463 27.2534 23.4753 27.3551 23.7958 27.4349V26.4237C23.1547 26.2856 22.8113 26.1339 22.3791 25.9627C21.8338 25.7489 21.3792 25.4799 21.0025 25.1645C20.6143 24.8419 20.3834 24.4527 20.1811 24.0097C19.9808 23.5701 19.9484 23.0517 19.9484 22.4679V22.4349C19.9484 21.8816 19.9888 21.3654 20.1917 20.9005C20.3914 20.4357 20.6601 20.0195 21.0512 19.6662C21.4308 19.3248 21.8893 19.0462 22.4333 18.8385C22.8459 18.6807 23.1543 18.5685 23.7955 18.5044V17.4753H26.3603V18.5698C27.0015 18.6609 27.508 18.801 27.9928 18.9872C28.6064 19.2248 29.2078 19.5274 29.7281 19.8865L30.1164 20.1452L28.2579 23.1877L27.8424 22.8927C27.5244 22.6689 27.1781 22.4788 26.8332 22.3285C26.6761 22.2605 26.6809 22.2009 26.3603 22.148V23.0517C27.0015 23.1902 27.3872 23.348 27.8091 23.523C28.3467 23.7477 28.8103 24.0196 29.1761 24.3315C29.564 24.6614 29.7932 25.0577 29.9856 25.5084C30.176 25.9579 30.2071 26.4728 30.2071 27.039V27.0742H30.2077Z" fill="white"/>
<path d="M24.9984 13.8202C18.8343 13.8202 13.8199 18.835 13.8199 24.9984C13.8199 31.1641 18.8346 36.1804 24.9984 36.1804C31.1638 36.1804 36.1801 31.1644 36.1801 24.9984C36.1801 18.8346 31.1641 13.8202 24.9984 13.8202ZM24.9984 35.2187C19.3649 35.2187 14.7817 30.6338 14.7817 24.9984C14.7817 19.3652 19.3649 14.782 24.9984 14.782C30.6335 14.782 35.2183 19.3652 35.2183 24.9984C35.2183 30.6338 30.6335 35.2187 24.9984 35.2187Z" fill="black"/>
<path d="M28.5589 25.0641C28.2685 24.8166 27.8959 24.5967 27.4516 24.4111C26.9835 24.2171 26.4138 24.044 25.7829 23.8975L25.3988 23.8109V20.9038L25.9999 21.0403C26.3943 21.1314 26.8101 21.268 27.2236 21.4462C27.4766 21.5568 27.7273 21.6841 27.9677 21.8277L28.825 20.4322C28.472 20.2212 28.096 20.0382 27.7004 19.8846C27.172 19.6817 26.5231 19.5409 25.8784 19.4665L25.3994 19.4175V18.4371H24.7583V19.3886L24.3046 19.4197C23.7256 19.4601 23.2037 19.5669 22.759 19.7371C22.3256 19.9025 21.9572 20.1189 21.6668 20.3809C21.3798 20.6399 21.2221 20.9432 21.0762 21.2827C20.9255 21.6283 20.9111 22.0153 20.9111 22.4352V22.4683C20.9111 22.9133 20.9211 23.2976 21.064 23.6109C21.2073 23.9254 21.3824 24.1921 21.6642 24.4261C21.9623 24.6759 22.3253 24.8916 22.7751 25.068C23.2543 25.2581 23.7846 25.4296 24.4216 25.579L24.7583 25.6659V28.6083L24.2213 28.5096C23.6605 28.4115 23.1216 28.2438 22.5933 28.011C22.1887 27.8325 21.7847 27.609 21.3741 27.3442L20.4254 28.7503C20.9137 29.0578 21.4478 29.3159 22.0143 29.5191C22.7472 29.7839 23.5121 29.9542 24.3065 30.0407L24.7583 30.0875V31.5821H25.3994V30.1132L25.8726 30.0728C26.408 30.0237 26.9239 29.9157 27.3705 29.7525C27.7917 29.5973 28.1659 29.3873 28.4634 29.1299C28.7519 28.8782 28.9164 28.5772 29.0764 28.2367C29.2309 27.8995 29.2466 27.5074 29.2466 27.0749V27.04C29.2466 26.6033 29.244 26.2147 29.1046 25.8855C28.9709 25.5735 28.8327 25.2969 28.5589 25.0641ZM24.7576 23.775L24.1847 23.6099C23.6471 23.464 23.3627 23.3066 23.1508 23.1143C22.9004 22.8841 22.8337 22.5757 22.8337 22.2198V22.1865C22.8337 21.829 22.9318 21.5119 23.2082 21.2692C23.4631 21.0487 23.7788 20.9214 24.2947 20.8788L24.7573 20.8358V23.775H24.7576ZM25.9348 28.6115L25.3991 28.667V25.6761L26.016 25.8496C26.5337 25.9964 26.8774 26.1577 27.0915 26.3568C27.3432 26.5914 27.4747 26.9021 27.4747 27.256C27.4747 27.7222 27.2733 28.4717 25.9348 28.6115Z" fill="#FFE101"/>
<path d="M29.1825 24.3319C28.8164 24.0196 28.347 23.7481 27.8094 23.5234C27.3875 23.3483 27.0018 23.1906 26.3606 23.0521V22.1483C26.6812 22.2012 26.678 22.2612 26.8351 22.3288C27.1797 22.4792 27.5218 22.6693 27.8402 22.8931L28.2621 23.188L30.1289 20.1456L29.7548 19.8868C29.2344 19.5278 28.6067 19.2255 27.9931 18.9876C27.508 18.8013 27.0021 18.6612 26.3609 18.5702V17.4756H23.7962V18.5048C23.155 18.5689 22.8309 18.6811 22.4183 18.8388C21.8745 19.0466 21.4033 19.3252 21.0237 19.6666C20.6325 20.0199 20.3937 20.4357 20.194 20.9009C19.991 21.3657 19.949 21.8822 19.949 22.4353V22.4683C19.949 23.0518 19.9881 23.5705 20.1885 24.01C20.3908 24.4531 20.6595 24.8423 21.0477 25.1648C21.4244 25.4803 21.8498 25.7492 22.3952 25.9631C22.8273 26.1343 23.155 26.2862 23.7962 26.4241V27.4353C23.4756 27.3554 23.246 27.2538 22.9674 27.131C22.4891 26.9201 22.0105 26.635 21.5177 26.2843L21.1234 25.9987L19.0963 28.9969L19.4774 29.27C20.1401 29.7467 20.907 30.1353 21.7107 30.4245C22.3721 30.663 23.155 30.8368 23.7962 30.9419V32.5439H26.3609V30.9778C27.0021 30.9095 27.2836 30.8015 27.6831 30.6553C28.2153 30.4594 28.6987 30.1904 29.085 29.8554C29.4758 29.5146 29.7249 29.1075 29.9436 28.6413C30.1584 28.1736 30.2081 27.6462 30.2081 27.0746V27.0396C30.2081 26.4731 30.1799 25.9586 29.9894 25.5091C29.7968 25.0577 29.5704 24.6618 29.1825 24.3319ZM29.246 27.0743C29.246 27.5067 29.2348 27.8988 29.0802 28.2361C28.9202 28.5769 28.7263 28.8776 28.4378 29.1293C28.1402 29.387 27.7924 29.5967 27.3708 29.7519C26.9242 29.9151 26.3988 30.0231 25.8634 30.0721L25.3988 30.1125V31.5815H24.7576V30.0869L24.3069 30.0401C23.5121 29.9535 22.7594 29.7833 22.0265 29.5185C21.4597 29.3149 20.922 29.0571 20.4338 28.7497L21.3831 27.3436C21.7937 27.6084 22.2031 27.8318 22.6077 28.0104C23.1361 28.2432 23.6609 28.4108 24.2216 28.5089L24.758 28.6077V25.6652L24.4136 25.5784C23.7769 25.429 23.2252 25.2575 22.7459 25.0673C22.2961 24.891 21.9242 24.6752 21.6261 24.4255C21.3443 24.1918 21.2038 23.9247 21.0605 23.6102C20.9176 23.2967 20.9108 22.9123 20.9108 22.4676V22.4346C20.9108 22.0146 20.9243 21.6277 21.075 21.2821C21.2208 20.9426 21.409 20.6393 21.696 20.3802C21.9864 20.1186 22.3378 19.9019 22.7712 19.7365C23.2162 19.5662 23.7333 19.4595 24.3123 19.4191L24.7583 19.388V18.4365H25.3995V19.4168L25.8791 19.4659C26.5238 19.54 27.1461 19.681 27.6744 19.884C28.07 20.0375 28.4605 20.2206 28.8135 20.4315L27.9646 21.8271C27.7241 21.6835 27.4798 21.5559 27.2269 21.4456C26.8133 21.2673 26.3933 21.1311 25.999 21.0397L25.3998 20.9031V23.8103L25.7839 23.8968C26.4148 24.0434 26.9784 24.2162 27.4465 24.4104C27.8908 24.5961 28.2662 24.816 28.5567 25.0635C28.8305 25.2966 28.9703 25.5729 29.1033 25.8845C29.2428 26.2135 29.2466 26.602 29.2466 27.039V27.0743H29.246Z" fill="black"/>
<path d="M26.016 25.8496L25.3991 25.6761V28.667L25.9349 28.6115C27.2737 28.4714 27.476 27.7222 27.476 27.2557C27.476 26.9018 27.3419 26.5914 27.0903 26.3565C26.8761 26.1577 26.5337 25.9964 26.016 25.8496ZM26.3705 27.0114C26.4081 27.0342 26.4289 27.0512 26.4388 27.0605C26.4856 27.1041 26.5167 27.1541 26.5167 27.2875C26.5167 27.3359 26.5167 27.433 26.3705 27.5183V27.0114Z" fill="black"/>
<path d="M23.2088 21.2696C22.9325 21.5123 22.8344 21.8293 22.8344 22.1868V22.2201C22.8344 22.576 22.9177 22.8844 23.1684 23.1146C23.3804 23.3069 23.6718 23.4644 24.2091 23.6102L24.758 23.7753V20.8361L24.2953 20.8791C23.7792 20.9217 23.4637 21.0487 23.2088 21.2696ZM23.8638 22.4647C23.8032 22.4327 23.7766 22.4112 23.7683 22.4042C23.7353 22.3737 23.7003 22.332 23.7003 22.2201V22.1868C23.7003 22.1201 23.7167 22.0614 23.793 21.9944C23.8032 21.9855 23.825 21.9694 23.8638 21.9505V22.4647Z" fill="black"/>
</g>
<defs>
<clipPath id="clip0_11_17">
<rect width="30" height="30" fill="white" transform="translate(10 10)"/>
</clipPath>
</defs>
</svg>
