<svg width="30" height="30" viewBox="0 0 30 30" fill="none" xmlns="http://www.w3.org/2000/svg">
<g clip-path="url(#clip0_12_2)">
<path d="M14.9984 0.961792C7.2586 0.961792 0.961792 7.2586 0.961792 14.9984C0.961792 22.7398 7.2586 29.0382 14.9984 29.0382C22.7398 29.0382 29.0382 22.7398 29.0382 14.9984C29.0382 7.2586 22.7401 0.961792 14.9984 0.961792ZM14.9984 26.1804C8.83432 26.1804 3.8199 21.1644 3.8199 14.9984C3.8199 8.83464 8.83464 3.82022 14.9984 3.82022C21.1638 3.82022 26.1801 8.83496 26.1801 14.9984C26.1801 21.1641 21.1641 26.1804 14.9984 26.1804Z" fill="#FFE101"/>
<path d="M14.9984 0C6.72833 0 0 6.72833 0 14.9984C0 23.2704 6.72833 30 14.9984 30C23.2704 30 30 23.2704 30 14.9984C30 6.72833 23.2704 0 14.9984 0ZM14.9984 29.0382C7.25859 29.0382 0.961785 22.7398 0.961785 14.9984C0.961785 7.25859 7.25859 0.961785 14.9984 0.961785C22.7398 0.961785 29.0382 7.25859 29.0382 14.9981C29.0382 22.7398 22.7401 29.0382 14.9984 29.0382Z" fill="black"/>
<path d="M16.5167 17.2874C16.5167 17.1541 16.4856 17.1041 16.4388 17.0605C16.4289 17.0512 16.4081 17.0342 16.3705 17.0114V17.5183C16.5167 17.433 16.5167 17.3362 16.5167 17.2874Z" fill="white"/>
<path d="M13.7003 12.1868V12.2201C13.7003 12.3323 13.7353 12.3737 13.7683 12.4041C13.7763 12.4112 13.8029 12.433 13.8638 12.4647V11.9505C13.825 11.9694 13.8035 11.9851 13.793 11.9944C13.7167 12.0617 13.7003 12.1201 13.7003 12.1868Z" fill="white"/>
<path d="M14.9984 4.78198C9.3649 4.78198 4.78168 9.36521 4.78168 14.9984C4.78168 20.6338 9.3649 25.2186 14.9984 25.2186C20.6335 25.2186 25.2183 20.6338 25.2183 14.9984C25.2183 9.36489 20.6335 4.78198 14.9984 4.78198ZM20.2077 17.0742C20.2077 17.6459 20.1674 18.1732 19.9526 18.641C19.7336 19.1071 19.4598 19.5143 19.069 19.8551C18.6827 20.1901 18.1983 20.4591 17.6657 20.655C17.2663 20.8012 17.0018 20.9092 16.3606 20.9775V22.5436H13.7958V20.9416C13.1547 20.8364 12.3727 20.6627 11.7113 20.4241C10.9073 20.1353 10.1526 19.7467 9.48961 19.2697L9.1049 18.9965L11.1323 15.9983L11.5321 16.284C12.0249 16.6347 12.4894 16.9194 12.9678 17.1307C13.2463 17.2534 13.4753 17.3551 13.7958 17.4349V16.4237C13.1547 16.2856 12.8113 16.1339 12.3791 15.9627C11.8338 15.7489 11.3792 15.4799 11.0025 15.1645C10.6143 14.8419 10.3834 14.4527 10.1811 14.0097C9.98077 13.5701 9.94839 13.0517 9.94839 12.4679V12.4349C9.94839 11.8816 9.98878 11.3654 10.1917 10.9005C10.3914 10.4357 10.6601 10.0195 11.0512 9.66625C11.4308 9.32481 11.8893 9.04622 12.4333 8.83847C12.8459 8.68074 13.1543 8.56853 13.7955 8.50441V7.4753H16.3603V8.56981C17.0015 8.66086 17.508 8.80096 17.9928 8.98723C18.6064 9.22479 19.2078 9.52743 19.7281 9.8865L20.1164 10.1452L18.2579 13.1877L17.8424 12.8927C17.5244 12.6689 17.1781 12.4788 16.8332 12.3285C16.6761 12.2605 16.6809 12.2009 16.3603 12.148V13.0517C17.0015 13.1902 17.3872 13.348 17.8091 13.523C18.3467 13.7477 18.8103 14.0196 19.1761 14.3315C19.564 14.6614 19.7932 15.0577 19.9856 15.5084C20.176 15.9579 20.2071 16.4728 20.2071 17.039V17.0742H20.2077Z" fill="white"/>
<path d="M14.9984 3.82022C8.83431 3.82022 3.81989 8.83497 3.81989 14.9984C3.81989 21.1641 8.83463 26.1804 14.9984 26.1804C21.1638 26.1804 26.1801 21.1644 26.1801 14.9984C26.1801 8.83465 21.1641 3.82022 14.9984 3.82022ZM14.9984 25.2187C9.3649 25.2187 4.78167 20.6338 4.78167 14.9984C4.78167 9.36523 9.3649 4.78201 14.9984 4.78201C20.6335 4.78201 25.2183 9.36523 25.2183 14.9984C25.2183 20.6338 20.6335 25.2187 14.9984 25.2187Z" fill="black"/>
<path d="M18.5589 15.0641C18.2685 14.8166 17.8959 14.5967 17.4516 14.4111C16.9835 14.2171 16.4138 14.044 15.7829 13.8975L15.3988 13.8109V10.9038L15.9999 11.0403C16.3943 11.1314 16.8101 11.268 17.2236 11.4462C17.4766 11.5568 17.7273 11.6841 17.9677 11.8277L18.825 10.4322C18.472 10.2212 18.096 10.0382 17.7004 9.88459C17.172 9.68165 16.5231 9.54091 15.8784 9.46653L15.3994 9.41748V8.4371H14.7583V9.38863L14.3046 9.41973C13.7256 9.46012 13.2037 9.56688 12.759 9.73712C12.3256 9.90254 11.9572 10.1189 11.6668 10.3809C11.3798 10.6399 11.2221 10.9432 11.0762 11.2827C10.9255 11.6283 10.9111 12.0153 10.9111 12.4352V12.4683C10.9111 12.9133 10.9211 13.2976 11.064 13.6109C11.2073 13.9254 11.3824 14.1921 11.6642 14.4261C11.9623 14.6759 12.3253 14.8916 12.7751 15.068C13.2543 15.2581 13.7846 15.4296 14.4216 15.579L14.7583 15.6659V18.6083L14.2213 18.5096C13.6605 18.4115 13.1216 18.2438 12.5933 18.011C12.1887 17.8325 11.7847 17.609 11.3741 17.3442L10.4254 18.7503C10.9137 19.0578 11.4478 19.3159 12.0143 19.5191C12.7472 19.7839 13.5121 19.9542 14.3065 20.0407L14.7583 20.0875V21.5821H15.3994V20.1132L15.8726 20.0728C16.408 20.0237 16.9239 19.9157 17.3705 19.7525C17.7917 19.5973 18.1659 19.3873 18.4634 19.1299C18.7519 18.8782 18.9164 18.5772 19.0764 18.2367C19.2309 17.8995 19.2466 17.5074 19.2466 17.0749V17.04C19.2466 16.6033 19.244 16.2147 19.1046 15.8855C18.9709 15.5735 18.8327 15.2969 18.5589 15.0641ZM14.7576 13.775L14.1847 13.6099C13.6471 13.464 13.3627 13.3066 13.1508 13.1143C12.9004 12.8841 12.8337 12.5757 12.8337 12.2198V12.1865C12.8337 11.829 12.9318 11.5119 13.2082 11.2692C13.4631 11.0487 13.7788 10.9214 14.2947 10.8788L14.7573 10.8358V13.775H14.7576ZM15.9348 18.6115L15.3991 18.667V15.6761L16.016 15.8496C16.5337 15.9964 16.8774 16.1577 17.0915 16.3568C17.3432 16.5914 17.4747 16.9021 17.4747 17.256C17.4747 17.7222 17.2733 18.4717 15.9348 18.6115Z" fill="#FFE101"/>
<path d="M19.1825 14.3319C18.8164 14.0196 18.347 13.7481 17.8094 13.5234C17.3875 13.3483 17.0018 13.1906 16.3606 13.0521V12.1483C16.6812 12.2012 16.678 12.2612 16.8351 12.3288C17.1797 12.4792 17.5218 12.6693 17.8402 12.8931L18.2621 13.188L20.1289 10.1456L19.7548 9.88684C19.2344 9.52778 18.6067 9.22545 17.9931 8.98757C17.508 8.80131 17.0021 8.66121 16.3609 8.57016V7.47565H13.7962V8.50476C13.155 8.56888 12.8309 8.68108 12.4183 8.83882C11.8745 9.04656 11.4033 9.32516 11.0237 9.66659C10.6325 10.0199 10.3937 10.4357 10.194 10.9009C9.99103 11.3657 9.94904 11.8822 9.94904 12.4353V12.4683C9.94904 13.0518 9.98815 13.5705 10.1885 14.01C10.3908 14.4531 10.6595 14.8423 11.0477 15.1648C11.4244 15.4803 11.8498 15.7492 12.3952 15.9631C12.8273 16.1343 13.155 16.2862 13.7962 16.4241V17.4353C13.4756 17.3554 13.246 17.2538 12.9674 17.131C12.4891 16.9201 12.0105 16.635 11.5177 16.2843L11.1234 15.9987L9.09625 18.9969L9.47744 19.27C10.1401 19.7467 10.907 20.1353 11.7107 20.4245C12.3721 20.663 13.155 20.8368 13.7962 20.9419V22.5439H16.3609V20.9778C17.0021 20.9095 17.2836 20.8015 17.6831 20.6553C18.2153 20.4594 18.6987 20.1904 19.085 19.8554C19.4758 19.5146 19.7249 19.1075 19.9436 18.6413C20.1584 18.1736 20.2081 17.6462 20.2081 17.0746V17.0396C20.2081 16.4731 20.1799 15.9586 19.9894 15.5091C19.7968 15.0577 19.5704 14.6618 19.1825 14.3319ZM19.246 17.0743C19.246 17.5067 19.2348 17.8988 19.0802 18.2361C18.9202 18.5769 18.7263 18.8776 18.4378 19.1293C18.1402 19.387 17.7924 19.5967 17.3708 19.7519C16.9242 19.9151 16.3988 20.0231 15.8634 20.0721L15.3988 20.1125V21.5815H14.7576V20.0869L14.3069 20.0401C13.5121 19.9535 12.7594 19.7833 12.0265 19.5185C11.4597 19.3149 10.922 19.0571 10.4338 18.7497L11.3831 17.3436C11.7937 17.6084 12.2031 17.8318 12.6077 18.0104C13.1361 18.2432 13.6609 18.4108 14.2216 18.5089L14.758 18.6077V15.6652L14.4136 15.5784C13.7769 15.429 13.2252 15.2575 12.7459 15.0673C12.2961 14.891 11.9242 14.6752 11.6261 14.4255C11.3443 14.1918 11.2038 13.9247 11.0605 13.6102C10.9176 13.2967 10.9108 12.9123 10.9108 12.4676V12.4346C10.9108 12.0146 10.9243 11.6277 11.075 11.2821C11.2208 10.9426 11.409 10.6393 11.696 10.3802C11.9864 10.1186 12.3378 9.90191 12.7712 9.73648C13.2162 9.56625 13.7333 9.45949 14.3123 9.41909L14.7583 9.388V8.43647H15.3995V9.41685L15.8791 9.4659C16.5238 9.53996 17.1461 9.68102 17.6744 9.88396C18.07 10.0375 18.4605 10.2206 18.8135 10.4315L17.9646 11.8271C17.7241 11.6835 17.4798 11.5559 17.2269 11.4456C16.8133 11.2673 16.3933 11.1311 15.999 11.0397L15.3998 10.9031V13.8103L15.7839 13.8968C16.4148 14.0434 16.9784 14.2162 17.4465 14.4104C17.8908 14.5961 18.2662 14.816 18.5567 15.0635C18.8305 15.2966 18.9703 15.5729 19.1033 15.8845C19.2428 16.2135 19.2466 16.602 19.2466 17.039V17.0743H19.246Z" fill="black"/>
<path d="M16.016 15.8496L15.3991 15.6761V18.667L15.9349 18.6115C17.2737 18.4714 17.476 17.7222 17.476 17.2557C17.476 16.9018 17.3419 16.5914 17.0903 16.3565C16.8761 16.1577 16.5337 15.9964 16.016 15.8496ZM16.3705 17.0114C16.4081 17.0342 16.4289 17.0512 16.4388 17.0605C16.4856 17.1041 16.5167 17.1541 16.5167 17.2875C16.5167 17.3359 16.5167 17.433 16.3705 17.5183V17.0114Z" fill="black"/>
<path d="M13.2088 11.2696C12.9325 11.5123 12.8344 11.8293 12.8344 12.1868V12.2201C12.8344 12.576 12.9177 12.8844 13.1684 13.1146C13.3804 13.3069 13.6718 13.4644 14.2091 13.6102L14.758 13.7753V10.8361L14.2953 10.8791C13.7792 10.9217 13.4637 11.0487 13.2088 11.2696ZM13.8638 12.4647C13.8032 12.4327 13.7766 12.4112 13.7683 12.4042C13.7353 12.3737 13.7003 12.332 13.7003 12.2201V12.1868C13.7003 12.1201 13.7167 12.0614 13.793 11.9944C13.8032 11.9855 13.825 11.9694 13.8638 11.9505V12.4647Z" fill="black"/>
</g>
<defs>
<clipPath id="clip0_12_2">
<rect width="30" height="30" fill="white"/>
</clipPath>
</defs>
</svg>
